<?xml version="1.0" encoding="utf-8"?>
<!-- Svg Vector Icons : http://www.onlinewebfonts.com/icon -->
<!DOCTYPE svg PUBLIC "-//W3C//DTD SVG 1.1//EN" "http://www.w3.org/Graphics/SVG/1.1/DTD/svg11.dtd">
<svg version="1.1" xmlns="http://www.w3.org/2000/svg" xmlns:xlink="http://www.w3.org/1999/xlink" x="0px" y="0px" viewBox="0 0 1000 1000" enable-background="new 0 0 1000 1000" xml:space="preserve">
<metadata> Svg Vector Icons : http://www.onlinewebfonts.com/icon </metadata>
<g><g><path d="M990,500c0-270.6-219.4-490-490-490C229.4,10,10,229.4,10,500c0,270.6,219.4,490,490,490C770.6,990,990,770.6,990,500z M101.9,500c0-219.9,178.2-398.1,398.1-398.1c219.9,0,398.1,178.2,398.1,398.1c0,219.9-178.2,398.1-398.1,398.1C280.1,898.1,101.9,719.9,101.9,500z M543.3,788.3l245-245c23.9-23.9,23.9-62.7,0-86.6c-23.9-23.9-62.7-23.9-86.6,0L561.3,597.1V255c0-33.8-27.4-61.2-61.2-61.2s-61.2,27.4-61.2,61.2v342.1L298.3,456.7c-23.9-23.9-62.7-23.9-86.6,0c-12,12-17.9,27.6-17.9,43.3c0,15.7,6,31.4,17.9,43.3l245,245C480.6,812.2,519.4,812.2,543.3,788.3z"/></g><g></g><g></g><g></g><g></g><g></g><g></g><g></g><g></g><g></g><g></g><g></g><g></g><g></g><g></g><g></g></g>
</svg>