<?xml version="1.0" encoding="iso-8859-1"?>
<!-- Generator: Adobe Illustrator 19.0.0, SVG Export Plug-In . SVG Version: 6.00 Build 0)  -->
<svg version="1.1" id="Capa_1" xmlns="http://www.w3.org/2000/svg" xmlns:xlink="http://www.w3.org/1999/xlink" x="0px" y="0px"
	 viewBox="0 0 512 512" style="enable-background:new 0 0 512 512;" xml:space="preserve">
<polyline style="fill:#4DBAF6;" points="232,502 232,350 280,350 280,502 "/>
<path style="fill:#FFC66C;" d="M348,10H164c-26.51,0-48,21.49-48,48v244c0,26.51,21.49,48,48,48h184c26.51,0,48-21.49,48-48V58
	C396,31.49,374.51,10,348,10z"/>
<g>
	<path style="fill:#FFFFFF;" d="M328,163.725h20V82.712C348,72.378,339.622,64,329.288,64H182.712C172.378,64,164,72.378,164,82.712
		v81.014h19.667L328,163.725L328,163.725z"/>
	<circle style="fill:#FFFFFF;" cx="203.67" cy="163.72" r="20"/>
	<circle style="fill:#FFFFFF;" cx="308" cy="163.72" r="20"/>
</g>
<path d="M232,406c-2.63,0-5.21,1.069-7.07,2.93S222,413.37,222,416s1.069,5.21,2.93,7.069c1.86,1.86,4.44,2.931,7.07,2.931
	s5.21-1.07,7.069-2.931C240.93,421.21,242,418.63,242,416s-1.07-5.21-2.931-7.07C237.21,407.069,234.63,406,232,406z"/>
<path d="M232,445c-5.522,0-10,4.478-10,10v47c0,5.522,4.478,10,10,10s10-4.478,10-10v-47C242,449.478,237.522,445,232,445z"/>
<path d="M348,0H164c-31.981,0-58,26.019-58,58v244c0,31.981,26.019,58,58,58h58v17c0,5.522,4.478,10,10,10s10-4.478,10-10v-17h28
	v142c0,5.522,4.478,10,10,10s10-4.478,10-10V360h58c31.981,0,58-26.019,58-58v-84c0-5.522-4.478-10-10-10s-10,4.478-10,10v84
	c0,20.953-17.047,38-38,38H164c-20.953,0-38-17.047-38-38V58c0-20.953,17.047-38,38-38h184c20.953,0,38,17.047,38,38v85.726
	c0,5.522,4.478,10,10,10s10-4.478,10-10V58C406,26.019,379.981,0,348,0z"/>
<path d="M396,173.069c-2.63,0-5.21,1.07-7.07,2.931c-1.86,1.859-2.93,4.439-2.93,7.069c0,2.631,1.069,5.211,2.93,7.07
	c1.86,1.86,4.44,2.93,7.07,2.93c2.64,0,5.21-1.069,7.069-2.93c1.86-1.859,2.931-4.439,2.931-7.07c0-2.63-1.07-5.21-2.931-7.069
	C401.21,174.14,398.63,173.069,396,173.069z"/>
<path d="M336.28,173.726H348c5.522,0,10-4.478,10-10V82.712C358,66.88,345.12,54,329.288,54H182.712C166.88,54,154,66.88,154,82.712
	v81.014c0,5.522,4.478,10,10,10h11.387c4.128,11.639,15.244,20,28.28,20s24.152-8.361,28.28-20h47.773
	c4.128,11.639,15.244,20,28.28,20S332.152,185.365,336.28,173.726z M336.28,153.726c-4.128-11.639-15.244-20-28.28-20
	s-24.152,8.361-28.28,20h-47.773c-4.128-11.639-15.244-20-28.28-20s-24.152,8.361-28.28,20H174v-29.863h164v29.863H336.28z
	 M237.75,103.862V74h36.5v29.862H237.75z M338,82.712v21.15h-43.75V74h35.038C334.092,74,338,77.908,338,82.712z M182.712,74h35.038
	v29.862H174v-21.15C174,77.908,177.908,74,182.712,74z M203.667,173.726c-5.514,0-10-4.486-10-10s4.486-10,10-10
	c5.134,0,9.373,3.892,9.933,8.879c-0.042,0.368-0.067,0.742-0.067,1.121s0.025,0.753,0.067,1.121
	C213.04,169.834,208.801,173.726,203.667,173.726z M298,163.726c0-5.514,4.486-10,10-10s10,4.486,10,10s-4.486,10-10,10
	S298,169.239,298,163.726z"/>
<path d="M188.353,219.921H164c-5.522,0-10,4.478-10,10v36v36c0,5.522,4.478,10,10,10h24.353c15.439,0,28-12.561,28-28
	c0-6.849-2.476-13.129-6.575-18c4.099-4.871,6.575-11.151,6.575-18C216.353,232.481,203.792,219.921,188.353,219.921z M174,239.921
	h14.353c4.411,0,8,3.589,8,8s-3.589,8-8,8H174V239.921z M188.353,291.921H174v-16h14.353c4.411,0,8,3.589,8,8
	S192.764,291.921,188.353,291.921z"/>
<path d="M237.1,219.921c-5.522,0-10,4.478-10,10v52c0,16.542,13.458,30,30,30s30-13.458,30-30v-52c0-5.522-4.478-10-10-10
	s-10,4.478-10,10v52c0,5.514-4.486,10-10,10s-10-4.486-10-10v-52C247.1,224.398,242.622,219.921,237.1,219.921z"/>
<path d="M331.177,291.921h-16.65c-5.522,0-10,4.478-10,10s4.478,10,10,10h16.65c15.439,0,28-12.561,28-28s-12.561-28-28-28h-6.354
	c-4.411,0-8-3.589-8-8s3.589-8,8-8h12.653c5.522,0,10-4.478,10-10s-4.478-10-10-10h-12.653c-15.439,0-28,12.561-28,28
	s12.561,28,28,28h6.354c4.411,0,8,3.589,8,8S335.588,291.921,331.177,291.921z"/>
<g>
</g>
<g>
</g>
<g>
</g>
<g>
</g>
<g>
</g>
<g>
</g>
<g>
</g>
<g>
</g>
<g>
</g>
<g>
</g>
<g>
</g>
<g>
</g>
<g>
</g>
<g>
</g>
<g>
</g>
</svg>
