<?xml version="1.0" encoding="utf-8"?>
<!-- Svg Vector Icons : http://www.onlinewebfonts.com/icon -->
<!DOCTYPE svg PUBLIC "-//W3C//DTD SVG 1.1//EN" "http://www.w3.org/Graphics/SVG/1.1/DTD/svg11.dtd">
<svg version="1.1" xmlns="http://www.w3.org/2000/svg" xmlns:xlink="http://www.w3.org/1999/xlink" x="0px" y="0px" viewBox="0 0 1000 1000" enable-background="new 0 0 1000 1000" xml:space="preserve">
<metadata> Svg Vector Icons : http://www.onlinewebfonts.com/icon </metadata>
<g><g><path d="M990,500c0-270.6-219.4-490-490-490C229.4,10,10,229.4,10,500c0,270.6,219.4,490,490,490C770.6,990,990,770.6,990,500L990,500z M132.5,500c0-202.7,164.8-367.5,367.5-367.5S867.5,297.3,867.5,500S702.7,867.5,500,867.5S132.5,702.7,132.5,500z"/><path d="M561.1,684.3V461.8l79.2,80.7c24,23.7,62.8,23.7,86.8,0c24-23.7,24-62.2,0-86L545.4,272.8C533.9,261.4,518.3,255,502,255c-0.7,0-1.4,0-2.1,0.1c-0.7,0-1.4-0.1-2.1-0.1c-16.3,0-31.9,6.4-43.4,17.8L272.7,456.5c-24,23.7-24,62.2,0,86c24,23.7,62.8,23.7,86.8,0l79.2-80.7v222.5c0,33.5,27.2,60.7,60.7,60.7h1.1C534,745,561.1,717.8,561.1,684.3L561.1,684.3z"/></g></g>
</svg>